<svg width="37" height="40" viewBox="0 0 37 40" fill="none" xmlns="http://www.w3.org/2000/svg">
<path d="M35.3182 10.0006H28.1705V9.20608C28.1705 4.1607 23.8398 0.0687866 18.5 0.0687866C13.1602 0.0687866 8.82955 4.1607 8.82955 9.20608V10.0006H1.68182C0.751563 10.0006 0 10.7107 0 11.5897V38.207C0 39.086 0.751563 39.7961 1.68182 39.7961H35.3182C36.2484 39.7961 37 39.086 37 38.207V11.5897C37 10.7107 36.2484 10.0006 35.3182 10.0006ZM24.3864 10.0006H12.6136V9.20608C12.6136 6.13217 15.2467 3.64425 18.5 3.64425C21.7533 3.64425 24.3864 6.13217 24.3864 9.20608V10.0006Z" fill="white"/>
</svg>
